<svg xmlns="http://www.w3.org/2000/svg" width="49" height="45" viewBox="0 0 49 45" fill="none"><path fill-rule="evenodd" clip-rule="evenodd" d="M40.4873 0.225933C40.8549 0.407077 41.1645 0.687517 41.3809 1.03551C41.5974 1.3835 41.7122 1.78514 41.7122 2.19496V10.8987L43.6658 12.2026C45.0902 13.1521 46.2582 14.4387 47.066 15.948C47.8738 17.4573 48.2965 19.1428 48.2965 20.8547C48.2965 22.5666 47.8738 24.252 47.066 25.7613C46.2582 27.2707 45.0902 28.5572 43.6658 29.5068L41.7122 30.8085V37.317C41.7124 37.7234 41.5998 38.1219 41.3869 38.468C41.1741 38.8142 40.8693 39.0945 40.5066 39.2777C40.1438 39.4608 39.7374 39.5397 39.3325 39.5056C38.9275 39.4714 38.54 39.3255 38.2131 39.0841L38.1999 39.0731L38.1604 39.0446L38.0002 38.9261L37.3878 38.487C36.8653 38.1183 36.1277 37.6046 35.2804 37.0383C33.5594 35.8924 31.4785 34.5995 29.8036 33.8158C26.7567 32.389 23.5804 31.3287 21.146 30.6219C20.2727 30.3683 19.3945 30.1319 18.5118 29.9129C17.6619 31.2942 17.3516 32.9406 17.6404 34.5366C17.9292 36.1325 18.7968 37.5658 20.077 38.5617C22.7835 40.6668 21.2974 45 17.873 45H10.9803C10.5504 45.0004 10.1299 44.8745 9.77088 44.638C9.41187 44.4016 9.13019 44.0649 8.96081 43.6698L8.12666 41.7161C6.32685 37.5175 6.23394 32.7828 7.86764 28.5168L7.96642 28.2577C5.48614 27.6537 3.31329 26.1615 1.85901 24.0635C0.404732 21.9655 -0.230094 19.4072 0.0746533 16.8726C0.379401 14.3381 1.60258 12.0032 3.51275 10.3097C5.42292 8.61625 7.88756 7.68165 10.4403 7.68279H17.5657C17.6243 7.68264 17.6829 7.68484 17.7413 7.68937H17.7457L17.7852 7.69377L17.9762 7.70255C19.179 7.74589 20.3833 7.71803 21.5828 7.61913C23.9404 7.42596 26.9784 6.9123 29.8672 5.66546C31.5246 4.95205 33.577 3.67887 35.2892 2.52204C36.1985 1.90523 37.0936 1.26775 37.9739 0.610081L38.1319 0.491544L38.1714 0.460812L38.1802 0.454227C38.5051 0.204662 38.8934 0.0510153 39.3011 0.01067C39.7089 -0.0296753 40.1197 0.044891 40.4873 0.225933ZM15.3706 12.073H10.4403C8.91304 12.0734 7.44249 12.6518 6.32421 13.692C5.20593 14.7322 4.52282 16.1572 4.41217 17.6804C4.30152 19.2037 4.77153 20.7124 5.72773 21.9033C6.68394 23.0943 8.05547 23.8791 9.56667 24.1002L11.2898 24.3504L15.3706 24.9168V12.073ZM19.7609 25.7004C20.4655 25.876 21.3567 26.1131 22.3731 26.4094C24.9326 27.1514 28.3416 28.2863 31.6672 29.8404C33.509 30.7031 35.6251 32.0092 37.3219 33.1265V6.44474C35.6295 7.57303 33.498 8.88133 31.6058 9.69792C28.1309 11.1972 24.5814 11.7789 21.945 11.9962C21.1284 12.0621 20.3931 12.0972 19.7609 12.1104V25.6982V25.7004ZM13.9833 29.1577L12.4072 28.9382L11.9681 30.0863C10.7424 33.2858 10.8117 36.8371 12.1613 39.9863L12.4269 40.6097H15.8733C14.5211 39.0673 13.6277 37.1772 13.2941 35.1533C12.9605 33.1294 13.2 31.0526 13.9855 29.1577H13.9833ZM41.7122 25.4963C42.3983 24.9327 42.951 24.224 43.3305 23.4212C43.71 22.6184 43.9068 21.7415 43.9068 20.8536C43.9068 19.9656 43.71 19.0887 43.3305 18.2859C42.951 17.4832 42.3983 16.7745 41.7122 16.2109V25.4963Z" fill="#1649FF"></path></svg>