<svg xmlns="http://www.w3.org/2000/svg" width="46" height="45" viewBox="0 0 46 45" fill="none"><path fill-rule="evenodd" clip-rule="evenodd" d="M42.6566 1.95958C41.4016 0.704901 39.6996 6.10352e-05 37.9249 6.10352e-05C36.1503 6.10352e-05 34.4483 0.704901 33.1932 1.95958L29.4453 5.70747L11.808 23.3449C11.5223 23.6304 11.3195 23.9882 11.2212 24.38L8.99035 33.3035C8.89671 33.6774 8.90152 34.0691 9.00432 34.4406C9.10711 34.812 9.30439 35.1505 9.57691 35.423C9.84944 35.6955 10.1879 35.8928 10.5594 35.9956C10.9308 36.0984 11.3226 36.1032 11.6964 36.0096L20.62 33.7787C21.0118 33.6804 21.3695 33.4777 21.6551 33.192L39.1653 15.684L43.0404 11.8067C44.295 10.5517 44.9999 8.84965 44.9999 7.075C44.9999 5.30035 44.295 3.59835 43.0404 2.34329L42.6566 1.95958ZM36.3477 5.11405C36.7661 4.69583 37.3334 4.46088 37.9249 4.46088C38.5165 4.46088 39.0838 4.69583 39.5022 5.11405L39.8859 5.49777C40.3041 5.91612 40.5391 6.48345 40.5391 7.075C40.5391 7.66655 40.3041 8.23388 39.8859 8.65224L37.6171 10.921L34.148 7.31371L36.3477 5.11405ZM30.9936 10.4682L34.4626 14.0755L18.9356 29.6003L14.2195 30.7804L15.3997 26.0621L30.9936 10.4682ZM4.46165 13.7677C4.46165 13.176 4.69669 12.6086 5.11506 12.1902C5.53343 11.7718 6.10087 11.5368 6.69254 11.5368H17.847C18.4386 11.5368 19.0061 11.3017 19.4244 10.8834C19.8428 10.465 20.0779 9.89756 20.0779 9.30589C20.0779 8.71422 19.8428 8.14679 19.4244 7.72841C19.0061 7.31004 18.4386 7.075 17.847 7.075H6.69254C4.91753 7.075 3.21523 7.78012 1.96011 9.03524C0.704995 10.2904 -0.00012207 11.9927 -0.00012207 13.7677V38.3074C-0.00012207 40.0824 0.704995 41.7847 1.96011 43.0398C3.21523 44.2949 4.91753 45.0001 6.69254 45.0001H31.2323C33.0073 45.0001 34.7096 44.2949 35.9647 43.0398C37.2198 41.7847 37.9249 40.0824 37.9249 38.3074V27.153C37.9249 26.5613 37.6899 25.9939 37.2715 25.5755C36.8532 25.1571 36.2857 24.9221 35.694 24.9221C35.1024 24.9221 34.5349 25.1571 34.1166 25.5755C33.6982 25.9939 33.4632 26.5613 33.4632 27.153V38.3074C33.4632 38.8991 33.2281 39.4665 32.8098 39.8849C32.3914 40.3033 31.8239 40.5383 31.2323 40.5383H6.69254C6.10087 40.5383 5.53343 40.3033 5.11506 39.8849C4.69669 39.4665 4.46165 38.8991 4.46165 38.3074V13.7677Z" fill="#1649FF"></path></svg>