<svg xmlns="http://www.w3.org/2000/svg" width="45" height="45" viewBox="0 0 45 45" fill="none"><path fill-rule="evenodd" clip-rule="evenodd" d="M3.49832 3.49832C4.60737 2.38922 5.92401 1.50943 7.37307 0.909187C8.82214 0.308943 10.3752 0 11.9437 0C13.5122 0 15.0653 0.308943 16.5143 0.909187C17.9634 1.50943 19.28 2.38922 20.3891 3.49832L28.833 11.9422C29.9421 13.0513 30.8219 14.3679 31.4221 15.817C32.0224 17.266 32.3313 18.8191 32.3313 20.3876C32.3313 21.9561 32.0224 23.5092 31.4221 24.9582C30.8219 26.4073 29.9421 27.7239 28.833 28.833C28.5576 29.1182 28.2281 29.3456 27.8638 29.5021C27.4995 29.6586 27.1077 29.741 26.7113 29.7444C26.3148 29.7479 25.9216 29.6723 25.5547 29.5222C25.1877 29.372 24.8544 29.1503 24.574 28.87C24.2937 28.5896 24.072 28.2563 23.9218 27.8893C23.7717 27.5224 23.6962 27.1292 23.6996 26.7328C23.7031 26.3363 23.7854 25.9445 23.9419 25.5802C24.0984 25.2159 24.3259 24.8865 24.611 24.611C25.7305 23.4912 26.3595 21.9726 26.3595 20.3891C26.3595 18.8056 25.7305 17.287 24.611 16.1671L16.1701 7.72027C15.0496 6.59975 13.5299 5.97024 11.9452 5.97024C10.3605 5.97024 8.84079 6.59975 7.72027 7.72027C6.59975 8.84079 5.97024 10.3605 5.97024 11.9452C5.97024 13.5299 6.59975 15.0496 7.72027 16.1701L9.83124 18.2811C10.1229 18.555 10.3565 18.8847 10.5183 19.2506C10.68 19.6166 10.7665 20.0113 10.7728 20.4113C10.779 20.8113 10.7047 21.2085 10.5544 21.5793C10.4041 21.9501 10.1808 22.2869 9.89785 22.5697C9.61484 22.8525 9.27789 23.0756 8.907 23.2256C8.53611 23.3756 8.13885 23.4496 7.73882 23.4431C7.33879 23.4366 6.94414 23.3498 6.57832 23.1878C6.2125 23.0258 5.88297 22.7919 5.60929 22.5001L3.49832 20.3891C2.38922 19.28 1.50943 17.9634 0.909187 16.5143C0.308943 15.0653 0 13.5122 0 11.9437C0 10.3752 0.308943 8.82214 0.909187 7.37307C1.50943 5.92401 2.38922 4.60737 3.49832 3.49832ZM20.3891 16.1671C20.9488 16.7271 21.2633 17.4864 21.2633 18.2781C21.2633 19.0699 20.9488 19.8292 20.3891 20.3891C19.2696 21.5089 18.6407 23.0276 18.6407 24.611C18.6407 26.1945 19.2696 27.7131 20.3891 28.833L28.833 37.2799C29.9531 38.4 31.4723 39.0293 33.0564 39.0293C34.6405 39.0293 36.1597 38.4 37.2799 37.2799C38.4 36.1597 39.0293 34.6405 39.0293 33.0564C39.0293 31.4723 38.4 29.9531 37.2799 28.833L35.1689 26.722C34.8837 26.4466 34.6562 26.1171 34.4998 25.7528C34.3433 25.3885 34.2609 24.9967 34.2575 24.6003C34.254 24.2038 34.3296 23.8107 34.4797 23.4437C34.6298 23.0768 34.8515 22.7434 35.1319 22.4631C35.4122 22.1827 35.7456 21.961 36.1125 21.8109C36.4795 21.6607 36.8727 21.5852 37.2691 21.5886C37.6656 21.5921 38.0574 21.6745 38.4217 21.8309C38.7859 21.9874 39.1154 22.2149 39.3908 22.5001L41.5018 24.611C43.7417 26.8509 45 29.8888 45 33.0564C45 36.2241 43.7417 39.262 41.5018 41.5018C39.262 43.7417 36.2241 45 33.0564 45C29.8888 45 26.8509 43.7417 24.611 41.5018L16.1701 33.0579C15.061 31.9489 14.1812 30.6322 13.581 29.1832C12.9808 27.7341 12.6718 26.181 12.6718 24.6125C12.6718 23.0441 12.9808 21.491 13.581 20.0419C14.1812 18.5928 15.061 17.2762 16.1701 16.1671C16.7301 15.6074 17.4894 15.2929 18.2811 15.2929C19.0728 15.2929 19.8322 15.6074 20.3921 16.1671H20.3891Z" fill="#1649FF"></path></svg>