<svg xmlns="http://www.w3.org/2000/svg" width="199" height="30" viewBox="0 0 199 30" fill="none"><path d="M30 26.8093C30 28.5717 28.5716 30 26.8096 30H3.19036C1.42843 30 0 28.5717 0 26.8093V3.19075C0 1.42828 1.42843 0 3.19036 0H26.8096C28.5716 0 30 1.42828 30 3.19075V26.8093Z" fill="url(#paint0_linear_13_2026)"></path><path d="M5.01165 16.4742C4.67335 16.4742 4.33916 16.3168 4.1263 16.0217C3.77257 15.5333 3.8826 14.8505 4.37103 14.4978L10.4852 10.0762C10.7628 9.87567 11.1186 9.81706 11.4456 9.91783L17.2091 11.6917L24.9181 4.09881C25.3479 3.67619 26.0389 3.68133 26.4615 4.11012C26.8842 4.53994 26.879 5.23094 26.4502 5.65357L18.2775 13.703C17.9916 13.9847 17.5741 14.0865 17.1906 13.9683L11.3243 12.1636L5.65124 16.2665C5.45689 16.4063 5.23273 16.4742 5.01165 16.4742Z" fill="white"></path><path d="M5.01758 25.1907C4.6731 25.1907 4.33377 25.0283 4.12195 24.7239C3.77645 24.2293 3.89675 23.5496 4.39136 23.2041L11.8628 17.9804C12.1374 17.7882 12.486 17.7326 12.8058 17.8303L18.4788 19.5568L25.0052 13.4385C25.4453 13.0262 26.1363 13.0488 26.5487 13.4879C26.961 13.928 26.9384 14.619 26.4993 15.0313L19.5122 21.5815C19.2273 21.8488 18.8212 21.9434 18.4479 21.8293L12.6782 20.073L5.64174 24.9923C5.45151 25.127 5.23352 25.1907 5.01758 25.1907Z" fill="white"></path><path d="M47.9537 5.52075C42.1984 5.52075 39.0293 9.02924 39.0293 15.4005C39.0293 18.7002 39.8673 21.2215 41.5208 22.8946C43.0499 24.4411 45.2226 25.2257 47.9815 25.2257C49.7707 25.2257 51.6648 24.8781 53.4848 24.2221L54.0113 24.0267V20.9778L52.9141 21.4046C51.3542 22.002 49.7429 22.3054 48.111 22.3054C46.1121 22.3054 44.6632 21.8231 43.672 20.8329C42.5625 19.7254 42.002 17.8971 42.002 15.4015C42.002 12.8956 42.5635 11.0581 43.6679 9.93824C44.6601 8.93155 46.1162 8.44209 48.1172 8.44209C49.6555 8.44209 51.2596 8.76394 52.9141 9.39736L54.0113 9.82307V6.79171L53.5064 6.58708C51.708 5.87962 49.8488 5.52075 47.9537 5.52075Z" fill="#4F5F82"></path><path d="M63.8386 5.52075C60.8967 5.52075 58.6417 6.38656 57.1373 8.09454C55.6792 9.74903 54.9409 12.1984 54.9409 15.3737C54.9409 18.5491 55.6803 20.9984 57.1373 22.6529C58.6417 24.3609 60.8957 25.2267 63.8386 25.2267C66.7929 25.2267 69.0551 24.3609 70.5625 22.6539C72.0227 21.0005 72.7631 18.5511 72.7631 15.3737C72.7631 12.1964 72.0227 9.74698 70.5625 8.09351C69.0551 6.38656 66.7929 5.52075 63.8386 5.52075ZM63.8386 22.3064C61.744 22.3064 60.2695 21.7717 59.3296 20.6725C58.3785 19.5588 57.9157 17.8252 57.9157 15.3737C57.9157 12.9326 58.3785 11.202 59.3306 10.0843C60.2726 8.97885 61.7471 8.44106 63.8386 8.44106C67.9898 8.44106 69.7615 10.5141 69.7615 15.3737C69.7615 17.8303 69.3019 19.5629 68.3569 20.6735C67.4212 21.7727 65.9435 22.3064 63.8386 22.3064Z" fill="#4F5F82"></path><path d="M88.0472 19.604L78.2076 5.78296H75.3994V25.0117H78.3814V11.1896L88.2807 25.0117H91.0292V5.78296H88.0472V19.604Z" fill="#4F5F82"></path><path d="M101.2 19.9886L95.5632 5.78296H92.355L99.9643 25.0117H102.414L110.023 5.78296H106.814L101.2 19.9886Z" fill="#4F5F82"></path><path d="M111.286 25.0117H123.831V22.0297H114.268V16.7855H122.7V13.9063H114.268V8.66214H123.831V5.78296H111.286V25.0117Z" fill="#4F5F82"></path><path d="M137.81 16.0544C139.019 14.9922 139.658 13.4672 139.658 11.6564C139.658 7.98245 137.178 5.78296 133.025 5.78296H125.991V25.0117H128.87V17.7109H132.771L137.493 25.0117H141.031L135.938 17.1711C136.511 16.9593 137.186 16.6025 137.81 16.0544ZM128.87 8.66214H132.943C134.369 8.66214 135.389 9.0025 135.975 9.62049C136.433 10.1027 136.655 10.8318 136.655 11.7603C136.655 13.0611 136.27 14.8318 132.943 14.8318H128.87V8.66214Z" fill="#4F5F82"></path><path d="M152.811 15.2915C151.609 14.4431 150.125 14.0185 148.69 13.6082C147.614 13.3007 146.598 13.0097 145.897 12.582C145.255 12.1881 144.98 11.7419 144.98 11.0889C144.98 10.2776 145.25 9.67294 145.804 9.24107C146.429 8.75366 147.427 8.49659 148.692 8.49659C150.505 8.49659 151.961 9.05392 152.854 9.52178L154.064 10.1501V6.88836L153.587 6.66523C151.999 5.90533 150.305 5.52075 148.561 5.52075C146.4 5.52075 144.707 6.08939 143.533 7.21124C142.513 8.18605 141.951 9.56292 141.951 11.0889C141.951 12.7383 142.618 14.0267 143.935 14.9172C145.018 15.6493 146.389 16.0329 147.715 16.4051C150.351 17.1434 151.966 17.6966 151.966 19.6863C151.966 20.509 151.633 21.1208 150.948 21.5588C150.239 22.0123 149.194 22.2519 147.926 22.2519C146.123 22.2519 144.526 21.8467 143.121 21.0488L141.928 20.3537V23.7182L142.356 23.9424C144.096 24.7948 146.001 25.2267 148.051 25.2267C150.181 25.2267 151.94 24.7043 153.155 23.7162C154.363 22.7321 154.999 21.3388 154.999 19.6863C155 17.7933 154.261 16.3146 152.811 15.2915Z" fill="#4F5F82"></path><path d="M160.13 5.78296H157.25V25.0117H160.13V5.78296Z" fill="#4F5F82"></path><path d="M171.781 5.52075C168.839 5.52075 166.584 6.38656 165.08 8.09454C163.622 9.74903 162.883 12.1984 162.883 15.3737C162.883 18.5491 163.623 20.9984 165.08 22.6529C166.584 24.3609 168.838 25.2267 171.781 25.2267C174.735 25.2267 176.997 24.3609 178.505 22.6539C179.965 21.0005 180.705 18.5511 180.705 15.3737C180.705 12.1964 179.965 9.74698 178.505 8.09351C176.997 6.38656 174.735 5.52075 171.781 5.52075ZM171.781 22.3064C169.686 22.3064 168.212 21.7717 167.272 20.6725C166.321 19.5588 165.858 17.8252 165.858 15.3737C165.858 12.9326 166.321 11.202 167.273 10.0843C168.215 8.97885 169.689 8.44106 171.781 8.44106C175.932 8.44106 177.704 10.5141 177.704 15.3737C177.704 17.8303 177.244 19.5629 176.299 20.6735C175.364 21.7727 173.886 22.3064 171.781 22.3064Z" fill="#4F5F82"></path><path d="M195.914 5.78296V19.604L186.15 5.78296H183.369V25.0117H186.351V11.1896L196.223 25.0117H198.998V5.78296H195.914Z" fill="#4F5F82"></path><defs><linearGradient id="paint0_linear_13_2026" x1="-48.5" y1="82" x2="15" y2="10" gradientUnits="userSpaceOnUse"><stop stop-color="#3A0CA3"></stop><stop offset="1" stop-color="#1649FF"></stop></linearGradient></defs></svg>