<svg xmlns="http://www.w3.org/2000/svg" width="199" height="30" viewBox="0 0 199 30" fill="none"><path fill-rule="evenodd" clip-rule="evenodd" d="M26.8096 30C28.5716 30 30 28.5717 30 26.8093V3.19075C30 1.42828 28.5716 0 26.8096 0H3.19036C1.42843 0 0 1.42828 0 3.19075V26.8093C0 28.5717 1.42843 30 3.19036 30H26.8096ZM4.1263 16.0217C4.33916 16.3168 4.67335 16.4742 5.01165 16.4742C5.23273 16.4742 5.45689 16.4063 5.65124 16.2665L11.3243 12.1636L17.1906 13.9683C17.5741 14.0865 17.9916 13.9847 18.2775 13.703L26.4502 5.65357C26.879 5.23094 26.8842 4.53994 26.4615 4.11012C26.0389 3.68133 25.3479 3.67619 24.9181 4.09881L17.2091 11.6917L11.4456 9.91783C11.1186 9.81706 10.7628 9.87567 10.4852 10.0762L4.37103 14.4978C3.8826 14.8505 3.77257 15.5333 4.1263 16.0217ZM4.12195 24.7239C4.33377 25.0283 4.6731 25.1907 5.01758 25.1907C5.23352 25.1907 5.45151 25.127 5.64174 24.9923L12.6782 20.073L18.4479 21.8293C18.8212 21.9434 19.2273 21.8488 19.5122 21.5815L26.4993 15.0313C26.9384 14.619 26.961 13.928 26.5487 13.4879C26.1363 13.0488 25.4453 13.0262 25.0052 13.4385L18.4788 19.5568L12.8058 17.8303C12.486 17.7326 12.1374 17.7882 11.8628 17.9804L4.39136 23.2041C3.89675 23.5496 3.77645 24.2293 4.12195 24.7239Z" fill="white"></path><path d="M47.9537 5.52087C42.1984 5.52087 39.0293 9.02936 39.0293 15.4006C39.0293 18.7003 39.8673 21.2216 41.5208 22.8947C43.0499 24.4412 45.2226 25.2258 47.9815 25.2258C49.7707 25.2258 51.6648 24.8782 53.4848 24.2222L54.0113 24.0268V20.9779L52.9141 21.4047C51.3542 22.0021 49.7429 22.3055 48.111 22.3055C46.1121 22.3055 44.6632 21.8232 43.672 20.833C42.5625 19.7255 42.002 17.8972 42.002 15.4016C42.002 12.8957 42.5635 11.0582 43.6679 9.93836C44.6601 8.93167 46.1162 8.44221 48.1172 8.44221C49.6555 8.44221 51.2596 8.76406 52.9141 9.39748L54.0113 9.82319V6.79183L53.5064 6.5872C51.708 5.87974 49.8488 5.52087 47.9537 5.52087Z" fill="white"></path><path d="M63.8386 5.52087C60.8967 5.52087 58.6417 6.38668 57.1373 8.09466C55.6792 9.74915 54.9409 12.1985 54.9409 15.3738C54.9409 18.5492 55.6803 20.9985 57.1373 22.653C58.6417 24.361 60.8957 25.2268 63.8386 25.2268C66.7929 25.2268 69.0551 24.361 70.5625 22.654C72.0227 21.0006 72.7631 18.5512 72.7631 15.3738C72.7631 12.1965 72.0227 9.7471 70.5625 8.09363C69.0551 6.38668 66.7929 5.52087 63.8386 5.52087ZM63.8386 22.3065C61.744 22.3065 60.2695 21.7718 59.3296 20.6726C58.3785 19.5589 57.9157 17.8253 57.9157 15.3738C57.9157 12.9327 58.3785 11.2021 59.3306 10.0844C60.2726 8.97897 61.7471 8.44118 63.8386 8.44118C67.9898 8.44118 69.7615 10.5142 69.7615 15.3738C69.7615 17.8304 69.3019 19.563 68.3569 20.6736C67.4212 21.7728 65.9435 22.3065 63.8386 22.3065Z" fill="white"></path><path d="M88.0472 19.6041L78.2076 5.78302H75.3994V25.0118H78.3814V11.1897L88.2807 25.0118H91.0292V5.78302H88.0472V19.6041Z" fill="white"></path><path d="M101.2 19.9887L95.5632 5.78302H92.355L99.9643 25.0118H102.414L110.023 5.78302H106.814L101.2 19.9887Z" fill="white"></path><path d="M111.286 25.0118H123.831V22.0298H114.268V16.7856H122.7V13.9064H114.268V8.6622H123.831V5.78302H111.286V25.0118Z" fill="white"></path><path d="M137.81 16.0545C139.019 14.9923 139.658 13.4673 139.658 11.6565C139.658 7.98251 137.178 5.78302 133.025 5.78302H125.991V25.0118H128.87V17.711H132.771L137.493 25.0118H141.031L135.938 17.1712C136.511 16.9594 137.186 16.6026 137.81 16.0545ZM128.87 8.6622H132.943C134.369 8.6622 135.389 9.00256 135.975 9.62055C136.433 10.1028 136.655 10.8319 136.655 11.7604C136.655 13.0612 136.27 14.8319 132.943 14.8319H128.87V8.6622Z" fill="white"></path><path d="M152.811 15.2916C151.609 14.4432 150.125 14.0186 148.69 13.6083C147.614 13.3008 146.598 13.0098 145.897 12.5821C145.255 12.1882 144.98 11.742 144.98 11.089C144.98 10.2777 145.25 9.67306 145.804 9.24119C146.429 8.75378 147.427 8.49671 148.692 8.49671C150.505 8.49671 151.961 9.05404 152.854 9.5219L154.064 10.1502V6.88848L153.587 6.66535C151.999 5.90545 150.305 5.52087 148.561 5.52087C146.4 5.52087 144.707 6.08951 143.533 7.21136C142.513 8.18617 141.951 9.56304 141.951 11.089C141.951 12.7384 142.618 14.0268 143.935 14.9173C145.018 15.6494 146.389 16.033 147.715 16.4052C150.351 17.1435 151.966 17.6967 151.966 19.6864C151.966 20.5091 151.633 21.1209 150.948 21.5589C150.239 22.0124 149.194 22.252 147.926 22.252C146.123 22.252 144.526 21.8468 143.121 21.0489L141.928 20.3538V23.7183L142.356 23.9425C144.096 24.7949 146.001 25.2268 148.051 25.2268C150.181 25.2268 151.94 24.7044 153.155 23.7163C154.363 22.7322 154.999 21.3389 154.999 19.6864C155 17.7934 154.261 16.3147 152.811 15.2916Z" fill="white"></path><path d="M160.13 5.78302H157.25V25.0118H160.13V5.78302Z" fill="white"></path><path d="M171.781 5.52087C168.839 5.52087 166.584 6.38668 165.08 8.09466C163.622 9.74915 162.883 12.1985 162.883 15.3738C162.883 18.5492 163.623 20.9985 165.08 22.653C166.584 24.361 168.838 25.2268 171.781 25.2268C174.735 25.2268 176.997 24.361 178.505 22.654C179.965 21.0006 180.705 18.5512 180.705 15.3738C180.705 12.1965 179.965 9.7471 178.505 8.09363C176.997 6.38668 174.735 5.52087 171.781 5.52087ZM171.781 22.3065C169.686 22.3065 168.212 21.7718 167.272 20.6726C166.321 19.5589 165.858 17.8253 165.858 15.3738C165.858 12.9327 166.321 11.2021 167.273 10.0844C168.215 8.97897 169.689 8.44118 171.781 8.44118C175.932 8.44118 177.704 10.5142 177.704 15.3738C177.704 17.8304 177.244 19.563 176.299 20.6736C175.364 21.7728 173.886 22.3065 171.781 22.3065Z" fill="white"></path><path d="M195.914 5.78302V19.6041L186.15 5.78302H183.369V25.0118H186.351V11.1897L196.223 25.0118H198.998V5.78302H195.914Z" fill="white"></path></svg>