<svg xmlns="http://www.w3.org/2000/svg" width="45" height="45" viewBox="0 0 45 45" fill="none"><path fill-rule="evenodd" clip-rule="evenodd" d="M20.25 4.6395C15.7111 5.21704 11.5624 7.5012 8.64717 11.0277C5.73193 14.5543 4.26888 19.0585 4.5554 23.6251C4.84191 28.1916 6.85649 32.4776 10.1897 35.6121C13.5229 38.7466 17.9245 40.4943 22.5 40.5C26.8844 40.4999 31.118 38.8998 34.4064 36C37.6948 33.1002 39.812 29.0999 40.3605 24.75H22.5C21.9033 24.75 21.331 24.5129 20.909 24.091C20.4871 23.669 20.25 23.0967 20.25 22.5V4.6395ZM24.75 4.6395V20.25H40.3605C39.8597 16.2846 38.0539 12.5985 35.2277 9.77228C32.4015 6.94605 28.7154 5.14032 24.75 4.6395ZM0 22.5C0 10.0733 10.0733 0 22.5 0C34.9268 0 45 10.0733 45 22.5C45 34.9268 34.9268 45 22.5 45C10.0733 45 0 34.9268 0 22.5Z" fill="#1649FF"></path></svg>